<svg width="160" height="160" viewBox="0 0 160 160" fill="none" xmlns="http://www.w3.org/2000/svg">
  <rect width="160" height="160" rx="40" fill="#F8F2E7"/>
  <rect x="32" y="36" width="96" height="88" rx="18" fill="#FFFDF8" stroke="#D8DED6" stroke-width="4"/>
  <rect x="54" y="58" width="52" height="44" rx="8" fill="#1E2430"/>
  <rect x="62" y="66" width="36" height="8" rx="4" fill="#0F766E"/>
  <rect x="62" y="80" width="22" height="8" rx="4" fill="#F59E0B"/>
  <rect x="62" y="94" width="30" height="8" rx="4" fill="#0F766E"/>
  <rect x="46" y="48" width="8" height="12" rx="4" fill="#0F766E"/>
  <rect x="58" y="48" width="8" height="12" rx="4" fill="#0F766E"/>
  <rect x="70" y="48" width="8" height="12" rx="4" fill="#0F766E"/>
  <rect x="82" y="48" width="8" height="12" rx="4" fill="#0F766E"/>
  <rect x="94" y="48" width="8" height="12" rx="4" fill="#0F766E"/>
  <rect x="106" y="48" width="8" height="12" rx="4" fill="#0F766E"/>
  <rect x="46" y="100" width="8" height="12" rx="4" fill="#F59E0B"/>
  <rect x="58" y="100" width="8" height="12" rx="4" fill="#F59E0B"/>
  <rect x="70" y="100" width="8" height="12" rx="4" fill="#F59E0B"/>
  <rect x="82" y="100" width="8" height="12" rx="4" fill="#F59E0B"/>
  <rect x="94" y="100" width="8" height="12" rx="4" fill="#F59E0B"/>
  <rect x="106" y="100" width="8" height="12" rx="4" fill="#F59E0B"/>
</svg>
