<svg width="160" height="160" viewBox="0 0 160 160" fill="none" xmlns="http://www.w3.org/2000/svg">
  <rect width="160" height="160" rx="40" fill="#F8F2E7"/>
  <rect x="28" y="92" width="20" height="20" rx="4" fill="#7DB7E4"/>
  <rect x="56" y="92" width="20" height="20" rx="4" fill="#2D9CCB"/>
  <rect x="84" y="92" width="20" height="20" rx="4" fill="#2D9CCB"/>
  <rect x="56" y="64" width="20" height="20" rx="4" fill="#7DB7E4"/>
  <rect x="84" y="64" width="20" height="20" rx="4" fill="#4CB4D6"/>
  <rect x="112" y="64" width="20" height="20" rx="4" fill="#2D9CCB"/>
  <rect x="84" y="36" width="20" height="20" rx="4" fill="#7DB7E4"/>
  <rect x="28" y="64" width="20" height="20" rx="4" fill="#D7D7D7"/>
  <rect x="56" y="36" width="20" height="20" rx="4" fill="#D7D7D7"/>
  <rect x="84" y="120" width="20" height="20" rx="4" fill="#2D9CCB"/>
  <rect x="56" y="120" width="20" height="20" rx="4" fill="#4CB4D6"/>
  <rect x="112" y="92" width="20" height="20" rx="4" fill="#2D9CCB"/>
</svg>
